<?xml version="1.0"?>
<svg xmlns="http://www.w3.org/2000/svg" id="line" height="512px" viewBox="0 0 64 64" width="512px"><path d="m16.036 62h31.928a5.042 5.042 0 0 0 5.036-5.036v-49.928a5.042 5.042 0 0 0 -5.036-5.036h-31.928a5.042 5.042 0 0 0 -5.036 5.036v49.928a5.042 5.042 0 0 0 5.036 5.036zm-3.036-54.964a3.04 3.04 0 0 1 3.036-3.036h31.928a3.04 3.04 0 0 1 3.036 3.036v49.928a3.04 3.04 0 0 1 -3.036 3.036h-31.928a3.04 3.04 0 0 1 -3.036-3.036z" fill="#FFFFFF"/><path d="m16 54h32a1 1 0 0 0 1-1v-46a1 1 0 0 0 -1-1h-32a1 1 0 0 0 -1 1v46a1 1 0 0 0 1 1zm1-2v-27h4v17a1 1 0 0 0 1 1h20a1 1 0 0 0 1-1v-17h4v27zm24-33h-18v-4h14.586l3.414 3.414zm6 2v2h-30v-2zm-24 4h18v16h-18zm24-17v11h-4v-1a1 1 0 0 0 -.293-.707l-4-4a1 1 0 0 0 -.707-.293h-16a1 1 0 0 0 -1 1v5h-4v-11z" fill="#FFFFFF"/><path d="m29 56h2v2h-2z" fill="#FFFFFF"/><path d="m33 56h2v2h-2z" fill="#FFFFFF"/><path d="m26 29h12v2h-12z" fill="#FFFFFF"/><path d="m26 35h12v2h-12z" fill="#FFFFFF"/></svg>
